<svg xmlns="http://www.w3.org/2000/svg" width="24" height="24" viewBox="0 0 24 24"><path d="M0,0H24V24H0Z" fill="none" opacity="0.87"/><path d="M19.182,7.364H13.445l.864-4.155.027-.291a1.368,1.368,0,0,0-.4-.964L12.973,1,6.991,6.991a1.778,1.778,0,0,0-.536,1.282v9.091a1.824,1.824,0,0,0,1.818,1.818h8.182a1.806,1.806,0,0,0,1.673-1.109l2.745-6.409A1.8,1.8,0,0,0,21,11V9.182A1.824,1.824,0,0,0,19.182,7.364Zm0,3.636-2.727,6.364H8.273V8.273l3.945-3.945L11.209,9.182h7.973ZM1,8.273H4.636V19.182H1Z" transform="translate(1 1.909)" fill="#999"/></svg>