<svg xmlns="http://www.w3.org/2000/svg" width="24" height="24" viewBox="0 0 24 24"><g transform="translate(-335 -186)"><path d="M0,0H24V24H0Z" transform="translate(335 186)" fill="none" opacity="0.87"/><path d="M-2524.727-7845.817a1.824,1.824,0,0,1-1.818-1.82v-9.09a1.779,1.779,0,0,1,.535-1.281l5.982-5.992.963.956a1.359,1.359,0,0,1,.4.963l-.028.29-.862,4.157h5.735a1.823,1.823,0,0,1,1.82,1.817V-7854a1.77,1.77,0,0,1-.128.663l-2.745,6.41a1.808,1.808,0,0,1-1.674,1.109Zm-7.273,0v-10.91h3.635v10.91Z" transform="translate(2869 8053)" fill="#1461a5"/></g></svg>