<svg xmlns="http://www.w3.org/2000/svg" xmlns:xlink="http://www.w3.org/1999/xlink" width="18" height="18" viewBox="0 0 18 18"><defs><clipPath id="a"><rect width="18" height="18" fill="#1461a5"/></clipPath></defs><g clip-path="url(#a)"><path d="M-10651.509-4649.111a7.691,7.691,0,0,1-4.779,1.66,7.694,7.694,0,0,1-5.452-2.259,7.709,7.709,0,0,1,0-10.907,7.692,7.692,0,0,1,5.452-2.259,7.691,7.691,0,0,1,5.452,2.259,7.716,7.716,0,0,1,.6,10.233l4.115,4.116-1.273,1.271Zm-8.717-9.991a5.579,5.579,0,0,0,0,7.877,5.542,5.542,0,0,0,3.938,1.63,5.536,5.536,0,0,0,3.7-1.4l.477-.478a5.579,5.579,0,0,0-.235-7.626,5.542,5.542,0,0,0-3.937-1.63A5.543,5.543,0,0,0-10660.226-4659.1Z" transform="translate(10664 4662.874)" fill="#1461a5" stroke="rgba(0,0,0,0)" stroke-miterlimit="10" stroke-width="1"/></g></svg>