<svg xmlns="http://www.w3.org/2000/svg" xmlns:xlink="http://www.w3.org/1999/xlink" width="20" height="20" viewBox="0 0 20 20"><defs><clipPath id="a"><rect width="20" height="20" transform="translate(-0.227 -0.227)" fill="#fff"/></clipPath></defs><g transform="translate(0.227 0.227)"><g clip-path="url(#a)"><path d="M12.144,2H5.629A1.627,1.627,0,0,0,4.008,3.629L4,16.659a1.627,1.627,0,0,0,1.621,1.629H15.4a1.634,1.634,0,0,0,1.629-1.629V6.886ZM15.4,16.659H5.629V3.629h5.7V7.7H15.4Zm-3.25-.814L13.3,14.7,12.014,13.4H15.4V11.773H12.014l1.295-1.295L12.152,9.33l-3.266,3.25Z" transform="translate(-0.742 -0.371)" fill="#fff"/></g></g></svg>