<svg xmlns="http://www.w3.org/2000/svg" xmlns:xlink="http://www.w3.org/1999/xlink" width="18" height="18" viewBox="0 0 18 18"><defs><clipPath id="a"><rect width="18" height="18" fill="#666"/></clipPath></defs><g clip-path="url(#a)"><path d="M14.5,6.75h-.75V5.25a3.75,3.75,0,1,0-7.5,0v1.5H5.5A1.5,1.5,0,0,0,4,8.25v7.5a1.5,1.5,0,0,0,1.5,1.5h9a1.5,1.5,0,0,0,1.5-1.5V8.25a1.5,1.5,0,0,0-1.5-1.5M7.75,5.25a2.25,2.25,0,1,1,4.5,0v1.5H7.75Zm6.75,10.5h-9V8.25h9Z" transform="translate(-1 -0.375)" fill="#666"/><path d="M11.5,16.5A1.5,1.5,0,1,0,10,15a1.5,1.5,0,0,0,1.5,1.5" transform="translate(-2.5 -3.375)" fill="#666"/></g></svg>