<svg xmlns="http://www.w3.org/2000/svg" width="28" height="28" viewBox="0 0 28 28"><path d="M0,0H28V28H0Z" fill="none"/><path d="M23.212,20.324l-1.63-1.555V12.744c0-3.7-2.072-6.8-5.686-7.616V4.308a1.9,1.9,0,0,0-3.791,0v.819c-3.627.819-5.686,3.9-5.686,7.616v6.026l-1.63,1.555a1.2,1.2,0,0,0,.885,2.061H22.315a1.2,1.2,0,0,0,.9-2.061Zm-4.157-.349H8.946V12.744c0-2.989,1.908-5.423,5.055-5.423s5.055,2.434,5.055,5.423ZM14,26a2.478,2.478,0,0,0,2.527-2.41H11.473A2.47,2.47,0,0,0,14,26Z" transform="translate(0 0)" fill="#fff"/></svg>