<svg xmlns="http://www.w3.org/2000/svg" width="16" height="17.333" viewBox="0 0 16 17.333">
  <g id="Icon_feather-calendar" data-name="Icon feather-calendar" transform="translate(-3 -2)">
    <path id="합치기_22" data-name="합치기 22" d="M2.4,17.333a2.4,2.4,0,0,1-2.4-2.4V3.733a2.4,2.4,0,0,1,2.4-2.4H4V0H5.6V1.333h4.8V0H12V1.333h1.6a2.4,2.4,0,0,1,2.4,2.4v11.2a2.4,2.4,0,0,1-2.4,2.4Zm-.8-2.4a.8.8,0,0,0,.8.8H13.6a.8.8,0,0,0,.8-.8v-7.2H1.6Zm12.8-8.8v-2.4a.8.8,0,0,0-.8-.8H12V4.267H10.4V2.934H5.6V4.267H4V2.934H2.4a.8.8,0,0,0-.8.8v2.4Z" transform="translate(3 2)" fill="#999"/>
  </g>
</svg>
