<svg xmlns="http://www.w3.org/2000/svg" width="44" height="44" viewBox="0 0 44 44"><g transform="translate(-660 -781)"><rect width="44" height="44" rx="2" transform="translate(660 781)" fill="#ececec"/><g transform="translate(670.99 792)"><path d="M.01,0h22V22H.01V0Z" transform="translate(0)" fill="none"/><path d="M11.679,3.842V2.175a.477.477,0,0,0-.816-.326l-2.688,2.6a.451.451,0,0,0,0,.661l2.678,2.6a.488.488,0,0,0,.826-.335V5.7a5.679,5.679,0,0,1,5.759,5.586,5.28,5.28,0,0,1-.422,2.095.876.876,0,0,0,.221.968.976.976,0,0,0,1.574-.317,7.1,7.1,0,0,0,.547-2.747,7.564,7.564,0,0,0-7.679-7.448Zm0,13.034A5.679,5.679,0,0,1,5.92,11.29,5.28,5.28,0,0,1,6.342,9.2a.876.876,0,0,0-.221-.968.976.976,0,0,0-1.574.317A7.1,7.1,0,0,0,4,11.29a7.564,7.564,0,0,0,7.679,7.448V20.4a.477.477,0,0,0,.816.326l2.678-2.6a.451.451,0,0,0,0-.661l-2.678-2.6a.482.482,0,0,0-.816.335Z" transform="translate(-0.678 -0.29)" fill="#666"/></g></g></svg>