<svg xmlns="http://www.w3.org/2000/svg" xmlns:xlink="http://www.w3.org/1999/xlink" width="300" height="122.348" viewBox="0 0 300 122.348"><defs><clipPath id="a"><rect width="300" height="122.348" fill="none"/></clipPath><clipPath id="b"><rect width="300" height="122.349" fill="none"/></clipPath><clipPath id="c"><rect width="12.122" height="24.244" fill="none"/></clipPath><clipPath id="d"><rect width="12.122" height="37.982" fill="none"/></clipPath></defs><g clip-path="url(#a)"><g transform="translate(0 -0.001)"><g clip-path="url(#b)"><g transform="translate(124.544 25.861)" opacity="0.6"><g clip-path="url(#c)"><rect width="12.122" height="24.243" transform="translate(-0.001 0)" fill="#fff"/></g></g><g transform="translate(143.939 12.122)" opacity="0.8"><g clip-path="url(#d)"><rect width="12.122" height="37.981" transform="translate(0 0)" fill="#fff"/></g></g></g></g><rect width="12.121" height="50.104" transform="translate(163.334 0.001)" fill="#fff"/><rect width="1.06" height="10.8" transform="translate(36.731 108.341)" fill="#fff"/><g transform="translate(0 -0.001)"><g clip-path="url(#b)"><path d="M29.235,86.558H28.206v-8.1h.984v1.284h.091a2.443,2.443,0,0,1,2.387-1.388c1.641,0,2.744,1.036,2.744,2.969v5.236H33.4V81.4a1.914,1.914,0,0,0-2-2.118,2.073,2.073,0,0,0-2.163,2.253Z" transform="translate(11.729 32.583)" fill="#fff"/><path d="M33.934,87.576h1.075c.185.874,1.043,1.3,2.207,1.3,1.477,0,2.364-.687,2.373-2.163v-1.79H39.5a2.543,2.543,0,0,1-2.476,1.552c-1.94,0-3.348-1.538-3.341-4.028s1.358-4.1,3.357-4.1a2.587,2.587,0,0,1,2.476,1.627H39.6V78.461h1v8.31c-.007,2.06-1.433,3-3.387,3-1.783,0-3.1-.767-3.282-2.193m3.222-2.013c1.545-.007,2.447-1.171,2.447-3.088,0-1.873-.881-3.208-2.447-3.208-1.6,0-2.454,1.41-2.447,3.208-.007,1.819.865,3.081,2.447,3.088" transform="translate(14.006 32.578)" fill="#fff"/><path d="M39.957,78.462h.984v1.253h.075a2.3,2.3,0,0,1,2.193-1.372c.164,0,.4.007.522.014v1.029a2.423,2.423,0,0,0-.6-.059,2.017,2.017,0,0,0-2.148,2.029v5.207H39.957Z" transform="translate(16.616 32.579)" fill="#fff"/><path d="M42.93,82.565c-.008-2.462,1.454-4.215,3.565-4.222,1.76.007,3.453,1.245,3.462,4v.479H43.944c.045,1.835,1.089,3,2.7,3a2.266,2.266,0,0,0,2.059-1.09h1.09a3.126,3.126,0,0,1-3.149,2c-2.289.008-3.722-1.7-3.714-4.161m5.982-.627a2.461,2.461,0,0,0-2.4-2.67,2.653,2.653,0,0,0-2.56,2.67Z" transform="translate(17.852 32.579)" fill="#fff"/><path d="M48.69,83.292c-.007-2.515,1.365-4.185,3.357-4.192a2.555,2.555,0,0,1,2.461,1.627h.075V76.519h1.029v10.8h-1V85.858h-.1a2.573,2.573,0,0,1-2.476,1.627c-1.984.007-3.348-1.671-3.341-4.192m3.476,3.282c1.552-.007,2.447-1.38,2.447-3.3s-.881-3.252-2.447-3.252c-1.6,0-2.454,1.41-2.447,3.252s.865,3.29,2.447,3.3" transform="translate(20.247 31.82)" fill="#fff"/><path d="M55.691,76.446a.749.749,0,0,1,.746.716.726.726,0,0,1-.746.7.716.716,0,0,1-.746-.7.738.738,0,0,1,.746-.716m-.522,2.8h1.015v8.1H55.169Z" transform="translate(22.848 31.79)" fill="#fff"/><path d="M56.923,82.565c-.008-2.462,1.454-4.215,3.565-4.222,1.76.007,3.453,1.245,3.462,4v.479H57.937c.045,1.835,1.089,3,2.7,3a2.266,2.266,0,0,0,2.059-1.09h1.09a3.126,3.126,0,0,1-3.149,2c-2.289.008-3.722-1.7-3.714-4.161m5.982-.627a2.461,2.461,0,0,0-2.4-2.67,2.653,2.653,0,0,0-2.56,2.67Z" transform="translate(23.671 32.579)" fill="#fff"/><path d="M64,86.558H62.966v-8.1h.984v1.284h.091a2.443,2.443,0,0,1,2.387-1.388c1.641,0,2.744,1.036,2.744,2.969v5.236H68.158V81.4a1.914,1.914,0,0,0-2-2.118A2.073,2.073,0,0,0,64,81.53Z" transform="translate(26.184 32.583)" fill="#fff"/><path d="M72.191,79.862h-1.7v5.073c-.007,1.021.566,1.305,1.178,1.312l.671-.03v.954a7.171,7.171,0,0,1-.76.045,2.006,2.006,0,0,1-2.118-2.029V79.862H68.252V79h1.209v-1.94H70.49V79h1.7Z" transform="translate(28.382 32.044)" fill="#fff"/><rect width="1.059" height="10.801" transform="translate(105.814 108.34)" fill="#fff"/><path d="M78.026,86.558H77v-8.1h.984v1.284h.091a2.443,2.443,0,0,1,2.387-1.388c1.641,0,2.744,1.036,2.744,2.969v5.236H82.189V81.4a1.914,1.914,0,0,0-2-2.118,2.073,2.073,0,0,0-2.163,2.253Z" transform="translate(32.019 32.583)" fill="#fff"/><path d="M86.351,80.234h-1.79v7.235H83.546V80.234H82.293v-.865h1.253V78.205a1.919,1.919,0,0,1,2.118-2.044,4.776,4.776,0,0,1,.835.091v.909a3.376,3.376,0,0,0-.626-.044,1.138,1.138,0,0,0-1.312,1.3v.954h1.79Z" transform="translate(34.221 31.672)" fill="#fff"/><path d="M85.593,82.548c-.009-2.49,1.468-4.2,3.595-4.206s3.588,1.716,3.581,4.206-1.463,4.185-3.581,4.178-3.6-1.7-3.595-4.178m3.595,3.268c1.657,0,2.565-1.492,2.565-3.268s-.909-3.289-2.565-3.282-2.581,1.508-2.581,3.282.91,3.268,2.581,3.268" transform="translate(35.593 32.578)" fill="#fff"/><path d="M91.753,78.462h.984v1.253h.075a2.3,2.3,0,0,1,2.193-1.372c.164,0,.4.007.522.014v1.029a2.423,2.423,0,0,0-.6-.059,2.017,2.017,0,0,0-2.148,2.029v5.207H91.753Z" transform="translate(38.155 32.579)" fill="#fff"/><path d="M95.2,78.458h.984v1.253h.091a2.4,2.4,0,0,1,4.371.1h.059a2.451,2.451,0,0,1,2.4-1.463c1.5,0,2.461.956,2.461,2.775v5.431h-1.029V81.144a1.633,1.633,0,0,0-1.746-1.865,1.8,1.8,0,0,0-1.894,1.968v5.312H99.864V81.053a1.621,1.621,0,0,0-1.716-1.774A1.953,1.953,0,0,0,96.224,81.4v5.162H95.2Z" transform="translate(39.586 32.583)" fill="#fff"/><path d="M106.6,81.893c.545-.03,1.849-.119,2.237-.135V81c.008-1.089-.694-1.753-1.968-1.746a1.833,1.833,0,0,0-1.969,1.223h-1.059c.171-1.283,1.4-2.125,3.088-2.134a2.634,2.634,0,0,1,2.924,2.745v5.475h-1.015V85.309h-.059a2.624,2.624,0,0,1-2.49,1.433,2.43,2.43,0,0,1-2.67-2.447c-.008-1.649,1.327-2.268,2.983-2.4m-.164,3.939a2.286,2.286,0,0,0,2.4-2.357V82.6c-.4.037-1.685.135-2.088.156-1.431.1-2.118.65-2.118,1.581,0,.956.769,1.492,1.805,1.492" transform="translate(43.09 32.578)" fill="#fff"/><path d="M112.876,79.862h-1.7v5.073c-.007,1.021.566,1.305,1.178,1.312l.671-.03v.954a7.171,7.171,0,0,1-.76.045,2.006,2.006,0,0,1-2.118-2.029V79.862h-1.209V79h1.209v-1.94h1.029V79h1.7Z" transform="translate(45.301 32.044)" fill="#fff"/><path d="M113.441,76.446a.747.747,0,0,1,.746.716.725.725,0,0,1-.746.7.715.715,0,0,1-.745-.7.737.737,0,0,1,.745-.716m-.521,2.8h1.015v8.1H112.92Z" transform="translate(46.864 31.79)" fill="#fff"/><path d="M114.673,82.548c-.008-2.49,1.468-4.2,3.595-4.206s3.588,1.716,3.581,4.206-1.463,4.185-3.581,4.178-3.6-1.7-3.595-4.178m3.595,3.268c1.657,0,2.566-1.492,2.566-3.268s-.909-3.289-2.566-3.282-2.581,1.508-2.581,3.282.91,3.268,2.581,3.268" transform="translate(47.686 32.578)" fill="#fff"/><path d="M121.862,86.558h-1.029v-8.1h.984v1.284h.091a2.443,2.443,0,0,1,2.387-1.388c1.641,0,2.744,1.036,2.744,2.969v5.236h-1.014V81.4a1.914,1.914,0,0,0-2-2.118,2.073,2.073,0,0,0-2.163,2.253Z" transform="translate(50.247 32.583)" fill="#fff"/><rect width="1.059" height="10.801" transform="translate(182.886 108.34)" fill="#fff"/><path d="M132.461,86.558h-1.029v-8.1h.984v1.284h.091a2.443,2.443,0,0,1,2.387-1.388c1.641,0,2.744,1.036,2.744,2.969v5.236h-1.014V81.4a1.914,1.914,0,0,0-2-2.118,2.073,2.073,0,0,0-2.163,2.253Z" transform="translate(54.655 32.583)" fill="#fff"/><path d="M140.787,80.234H139v7.235h-1.015V80.234h-1.253v-.865h1.253V78.205a1.919,1.919,0,0,1,2.118-2.044,4.777,4.777,0,0,1,.835.091v.909a3.376,3.376,0,0,0-.626-.044,1.138,1.138,0,0,0-1.312,1.3v.954h1.79Z" transform="translate(56.858 31.672)" fill="#fff"/><path d="M140.55,78.462h.984v1.253h.075a2.3,2.3,0,0,1,2.193-1.372c.164,0,.4.007.522.014v1.029a2.423,2.423,0,0,0-.6-.059,2.017,2.017,0,0,0-2.148,2.029v5.207H140.55Z" transform="translate(58.447 32.579)" fill="#fff"/><path d="M146.7,81.893c.545-.03,1.849-.119,2.237-.135V81c.009-1.089-.694-1.753-1.968-1.746A1.833,1.833,0,0,0,145,80.476h-1.059c.171-1.283,1.4-2.125,3.088-2.134a2.634,2.634,0,0,1,2.924,2.745v5.475h-1.015V85.309h-.059a2.624,2.624,0,0,1-2.49,1.433,2.43,2.43,0,0,1-2.67-2.447c-.008-1.649,1.327-2.268,2.983-2.4m-.164,3.939a2.286,2.286,0,0,0,2.4-2.357V82.6c-.4.037-1.685.135-2.088.156-1.431.1-2.118.65-2.118,1.581,0,.956.769,1.492,1.805,1.492" transform="translate(59.762 32.578)" fill="#fff"/><rect width="4.535" height="0.954" transform="translate(211.569 114.039)" fill="#fff"/><path d="M156.774,79.238c-1.082-.007-1.842.589-1.835,1.372-.007.62.463,1.052,1.447,1.3l1.239.3c1.365.336,2.05,1.059,2.043,2.148.007,1.38-1.118,2.38-3.028,2.373-1.73.007-2.789-.791-3-2.223H154.7c.164.879.821,1.327,1.926,1.327,1.215,0,2.006-.552,2.013-1.417-.007-.641-.447-1.089-1.4-1.312L156,82.8c-1.365-.32-2.081-1.073-2.088-2.148.007-1.342,1.164-2.312,2.864-2.312a2.561,2.561,0,0,1,2.789,2.134H158.55a1.626,1.626,0,0,0-1.775-1.239" transform="translate(63.89 32.579)" fill="#fff"/><path d="M159.263,89.541l.016-.91c.1.008.327.016.491.016.522,0,1.045-.068,1.477-1.253l.285-.791-2.985-8.175h1.1l2.357,6.788h.074l2.373-6.788h1.089l-3.416,9.354a2.349,2.349,0,0,1-2.3,1.79c-.215-.007-.432-.014-.566-.03" transform="translate(65.931 32.614)" fill="#fff"/><path d="M167.261,79.238c-1.082-.007-1.842.589-1.835,1.372-.007.62.463,1.052,1.447,1.3l1.239.3c1.365.336,2.05,1.059,2.043,2.148.007,1.38-1.119,2.38-3.028,2.373-1.73.007-2.789-.791-3-2.223h1.059c.164.879.821,1.327,1.926,1.327,1.215,0,2.006-.552,2.013-1.417-.007-.641-.447-1.089-1.4-1.312l-1.239-.3c-1.365-.32-2.081-1.073-2.088-2.148.007-1.342,1.164-2.312,2.864-2.312a2.561,2.561,0,0,1,2.789,2.134h-1.014a1.626,1.626,0,0,0-1.775-1.239" transform="translate(68.251 32.579)" fill="#fff"/><path d="M172.952,79.862h-1.7v5.073c-.007,1.021.566,1.305,1.178,1.312l.671-.03v.954a7.171,7.171,0,0,1-.76.045,2.006,2.006,0,0,1-2.118-2.029V79.862h-1.209V79h1.209v-1.94h1.029V79h1.7Z" transform="translate(70.283 32.044)" fill="#fff"/><path d="M172.576,82.565c-.009-2.462,1.454-4.215,3.565-4.222,1.76.007,3.453,1.245,3.462,4v.479H173.59c.045,1.835,1.089,3,2.7,3a2.266,2.266,0,0,0,2.059-1.09h1.09a3.126,3.126,0,0,1-3.149,2c-2.289.008-3.722-1.7-3.714-4.161m5.982-.627a2.461,2.461,0,0,0-2.4-2.67,2.653,2.653,0,0,0-2.56,2.67Z" transform="translate(71.764 32.579)" fill="#fff"/><path d="M178.621,78.458h.984v1.253h.091a2.4,2.4,0,0,1,4.371.1h.059a2.451,2.451,0,0,1,2.4-1.463c1.5,0,2.461.956,2.461,2.775v5.431H187.96V81.144a1.633,1.633,0,0,0-1.746-1.865,1.8,1.8,0,0,0-1.894,1.968v5.312H183.29V81.053a1.621,1.621,0,0,0-1.716-1.774A1.953,1.953,0,0,0,179.65,81.4v5.162h-1.029Z" transform="translate(74.278 32.583)" fill="#fff"/><path d="M6.118,54.68c3.776,0,6.067,3.173,6.067,7.956,0,4.759-2.291,7.93-6.067,7.93C2.265,70.565,0,67.394,0,62.635c0-4.783,2.265-7.956,6.118-7.956m0,13.644c2.492,0,3.676-2.189,3.676-5.689,0-3.524-1.184-5.765-3.676-5.765-2.543,0-3.776,2.241-3.776,5.765,0,3.5,1.233,5.689,3.776,5.689m9.441,6.244v-21.1h2.468v8.106h3.851v2.241H18.027V74.568Z" transform="translate(0 22.236)" fill="#fff"/><path d="M24.935,69.951V65.37h-6.47V54.343H33.948V65.37H27.427v4.582h9.088v2.241H15.872V69.951Zm6.6-13.368H20.857v6.545H31.531Z" transform="translate(6.6 22.599)" fill="#fff"/><path d="M35.268,68.576h1.385a30.114,30.114,0,0,0,5.488-.528l.378,2.19a30.762,30.762,0,0,1-5.816.579H32.776V61.7H38.54V57.223H32.776V54.981h8.257v8.887H35.268Zm11.657,5.791H44.431V63.718H41.687V61.477h2.744V53.723h2.493Zm2.064-20.9h2.492v21.1H48.989Z" transform="translate(13.63 22.236)" fill="#fff"/><path d="M63.192,69.685a37.87,37.87,0,0,1-8.107.629H48.665v-2.24h2.9c-.2-3.072-.353-8.586-.353-11.1h-2.09v-2.24H61.555v2.24H59.264c0,2.97-.1,8.056-.3,11.027a24.771,24.771,0,0,0,3.851-.554Zm-6.722-1.611c.2-3.173.353-8.283.353-11.1H53.676c0,2.543.1,8.031.327,11.1h2.466ZM61.051,61.1h3.5V53.472h2.492v21.1H64.551V63.34h-3.5Z" transform="translate(20.237 22.236)" fill="#fff"/><path d="M71.078,62.887h-.327a7.072,7.072,0,0,1-.378,1.308,16.9,16.9,0,0,1-5.362,6.7l-1.737-1.611c4.28-3.171,6.37-7.426,6.37-11.732V54.731h2.441V57.55a14.109,14.109,0,0,0,6.043,11.33L76.365,70.49a16.657,16.657,0,0,1-4.859-6.269,6.5,6.5,0,0,1-.428-1.334m8.962-9.415h2.493v21.1H80.04Z" transform="translate(26.312 22.236)" fill="#fff"/><path d="M90.292,56.492c-.05,1.914-.151,4.558-.327,6.545a26.848,26.848,0,0,0,5.513-.7V53.472H97.97V66.159H95.478V64.6a42.32,42.32,0,0,1-9.742.755H79.466V63.139H82.31c-.176-2.015-.327-4.684-.377-6.647H79.542V54.278H92.557v2.214Zm5.186,13.293H82.361V67.544H97.97v7.68H95.478Zm-7.83-6.646c.177-2.064.252-4.784.278-6.647H84.351c0,1.889.075,4.607.276,6.647h3.021Z" transform="translate(33.045 22.236)" fill="#fff"/><path d="M104.959,69.181a7.459,7.459,0,0,0,.227-2.139V65.883H99.444v-2.19h5.639a51.139,51.139,0,0,0,9.265-.63l.353,2.165a44.457,44.457,0,0,1-7.049.63v1.184a8.927,8.927,0,0,1-.2,2.34Zm1.913-15.13c3.147,0,5.84,1.334,5.84,4.028s-2.693,3.977-5.84,3.977-5.84-1.284-5.84-3.977,2.693-4.028,5.84-4.028m-1.662,15.86v2.945h13.62V75.1H102.717V69.911Zm1.662-9.919c2.366,0,3.449-.806,3.449-1.913s-1.083-1.94-3.449-1.94-3.474.831-3.474,1.94c0,1.082,1.107,1.913,3.474,1.913m3.474,7.125h5.488V53.472h2.492V71.119h-2.492V69.281h-5.488Z" transform="translate(41.353 22.236)" fill="#fff"/><path d="M134.21,65.935a23.376,23.376,0,0,1-3.725.5v3.55h5.261V72.23H115.1V69.988h5.263V66.565H117.57V59.214h13.293V56.47H117.57V54.254H133.3v7.175H119.987v2.919h5.992a36.7,36.7,0,0,0,7.881-.579Zm-11.354.63v3.424h5.161V66.565h-5.161Z" transform="translate(47.864 22.562)" fill="#fff"/><path d="M143.033,65.631a8.984,8.984,0,0,1-4.129-2.82,3.823,3.823,0,0,1-.68-1.233h-.479a3.223,3.223,0,0,1-.579,1.259,10.968,10.968,0,0,1-4.582,3.853L130.8,64.826c5.186-2.718,5.891-5.891,5.968-8.082h-5.086V54.5h12.437v2.24h-4.91c.051,2.141.555,5.011,5.564,7Zm-.831,1.385c5.237,0,8.007,1.46,8.007,4.18,0,2.693-2.769,4.153-8.007,4.153-5.287,0-7.98-1.46-7.98-4.153,0-2.72,2.693-4.18,7.98-4.18m0,6.142c4.13,0,5.438-.881,5.438-1.962,0-1.109-1.308-1.989-5.438-1.989-4.154,0-5.437.881-5.437,1.989,0,1.082,1.283,1.962,5.437,1.962m.378-14.6h4.759V53.472h2.492V66.285h-2.492V60.772H142.58Z" transform="translate(54.391 22.236)" fill="#fff"/><path d="M158.118,66.061v3.928h9.088V72.23H146.562V69.988h9.064V66.061h-6.6V54.254h2.391v4.054h10.926V54.254h2.417V66.061Zm4.229-5.539H151.421v3.3h10.926Z" transform="translate(60.947 22.562)" fill="#fff"/><path d="M173.953,62.887h-.327a7.067,7.067,0,0,1-.378,1.308,16.9,16.9,0,0,1-5.362,6.7l-1.737-1.611c4.28-3.171,6.37-7.426,6.37-11.732V54.731h2.441V57.55A14.109,14.109,0,0,0,181,68.879L179.24,70.49a16.656,16.656,0,0,1-4.859-6.269,6.5,6.5,0,0,1-.428-1.334m8.962-9.415h2.493v21.1h-2.493Z" transform="translate(69.092 22.236)" fill="#fff"/><path d="M202.718,72.156H182.075V69.914h20.643ZM192.17,59.845a3.251,3.251,0,0,1-.656,1.359c-.83,1.083-2.768,3.071-6.948,4.28l-1.385-1.964c7.049-2.19,7.98-5.765,7.98-8.056V54.432h2.418v1.032c0,2.24,1.107,5.765,8.031,7.627l-1.436,2.04c-3.928-1.133-5.866-2.795-6.746-3.928a4.289,4.289,0,0,1-.756-1.359Z" transform="translate(75.714 22.636)" fill="#fff"/><path d="M208.053,54.278v2.214h-6.52v2.619h5.614v2.139h-5.614v2.442a34.826,34.826,0,0,0,7.4-.6l.377,2.216a44.927,44.927,0,0,1-8.886.629h-1.359V54.278ZM201.86,67.922h15.281v7.3H201.86Zm12.791,2.216H204.33v2.844h10.322Zm-6.622-11.129H210.6V53.748h2.369V66.663H210.6V61.251h-2.567Zm9.19,7.654h-2.369V53.472h2.369Z" transform="translate(82.781 22.236)" fill="#fff"/></g></g></g></svg>