<svg xmlns="http://www.w3.org/2000/svg" xmlns:xlink="http://www.w3.org/1999/xlink" width="259" height="34.807" viewBox="0 0 259 34.807"><defs><clipPath id="a"><rect width="259" height="34.807" fill="none"/></clipPath><clipPath id="b"><rect width="259" height="34.807" transform="translate(0 0)" fill="none"/></clipPath><clipPath id="c"><rect width="8.333" height="16.667" transform="translate(0 17.778)" fill="none"/></clipPath><clipPath id="d"><rect width="8.333" height="26.111" transform="translate(13.333 8.333)" fill="none"/></clipPath></defs><g clip-path="url(#a)"><g clip-path="url(#b)"><g opacity="0.6"><g clip-path="url(#c)"><rect width="8.333" height="16.667" transform="translate(0 17.777)" fill="#fff"/></g></g><g opacity="0.8"><g clip-path="url(#d)"><rect width="8.333" height="26.111" transform="translate(13.334 8.333)" fill="#fff"/></g></g></g><rect width="8.333" height="34.444" transform="translate(26.667 0)" fill="#fff"/><rect width="0.875" height="8.916" transform="translate(47 23.243)" fill="#fff"/><g clip-path="url(#b)"><path d="M50.493,32.159h-.85V25.472h.813v1.059h.074a2.016,2.016,0,0,1,1.97-1.145,2.173,2.173,0,0,1,2.266,2.45v4.323h-.837V27.9a1.58,1.58,0,0,0-1.65-1.749,1.711,1.711,0,0,0-1.786,1.86Z" fill="#fff"/><path d="M56.252,33h.887c.154.72.862,1.071,1.822,1.071,1.219,0,1.952-.567,1.958-1.786V30.8h-.074A2.1,2.1,0,0,1,58.8,32.085c-1.6,0-2.765-1.268-2.758-3.325s1.12-3.38,2.77-3.386a2.136,2.136,0,0,1,2.045,1.342h.074V25.472h.825v6.86c-.006,1.7-1.182,2.475-2.8,2.475-1.471,0-2.555-.634-2.709-1.81m2.66-1.663c1.275-.006,2.02-.967,2.02-2.549,0-1.546-.727-2.648-2.02-2.648-1.318,0-2.026,1.164-2.02,2.648-.006,1.5.715,2.543,2.02,2.549" fill="#fff"/><path d="M63.378,25.472h.813v1.034h.061a1.9,1.9,0,0,1,1.811-1.133c.135,0,.326.007.431.013v.85a1.966,1.966,0,0,0-.493-.05,1.664,1.664,0,0,0-1.773,1.675v4.3h-.85Z" fill="#fff"/><path d="M66.853,28.859c-.006-2.032,1.2-3.479,2.943-3.485,1.453.006,2.851,1.028,2.857,3.3v.394H67.69a2.239,2.239,0,0,0,2.229,2.475,1.873,1.873,0,0,0,1.7-.9h.9a2.582,2.582,0,0,1-2.6,1.65c-1.89.006-3.072-1.4-3.066-3.436m4.938-.517a2.032,2.032,0,0,0-1.983-2.2,2.188,2.188,0,0,0-2.112,2.2Z" fill="#fff"/><path d="M73.585,28.835c-.007-2.075,1.126-3.455,2.77-3.461a2.109,2.109,0,0,1,2.032,1.343h.062V23.244h.85V32.16h-.825V30.953h-.087a2.121,2.121,0,0,1-2.044,1.342c-1.638.006-2.765-1.379-2.758-3.46m2.869,2.709c1.281-.006,2.02-1.139,2.02-2.722s-.727-2.684-2.02-2.684c-1.318,0-2.026,1.163-2.02,2.684s.715,2.716,2.02,2.722" fill="#fff"/><path d="M81.511,23.157a.618.618,0,0,1,.616.591.6.6,0,0,1-.616.579.591.591,0,0,1-.616-.579.609.609,0,0,1,.616-.591m-.431,2.315h.837v6.687H81.08Z" fill="#fff"/><path d="M83.206,28.859c-.006-2.032,1.2-3.479,2.943-3.485,1.453.006,2.851,1.028,2.857,3.3v.394H84.043a2.239,2.239,0,0,0,2.229,2.475,1.873,1.873,0,0,0,1.7-.9h.9a2.582,2.582,0,0,1-2.6,1.65c-1.89.006-3.072-1.4-3.066-3.436m4.938-.517a2.032,2.032,0,0,0-1.983-2.2,2.188,2.188,0,0,0-2.112,2.2Z" fill="#fff"/><path d="M91.12,32.159h-.85V25.472h.813v1.059h.074a2.016,2.016,0,0,1,1.97-1.145,2.173,2.173,0,0,1,2.266,2.45v4.323h-.837V27.9a1.58,1.58,0,0,0-1.65-1.749,1.711,1.711,0,0,0-1.786,1.86Z" fill="#fff"/><path d="M99.7,26.187h-1.4v4.187c-.006.844.468,1.078.973,1.084l.554-.025v.788a5.9,5.9,0,0,1-.628.037,1.656,1.656,0,0,1-1.749-1.675v-4.4h-1v-.714h1v-1.6h.85v1.6h1.4Z" fill="#fff"/><rect width="0.874" height="8.916" transform="translate(104.026 23.243)" fill="#fff"/><path d="M107.518,32.159h-.85V25.472h.813v1.059h.074a2.016,2.016,0,0,1,1.97-1.145,2.173,2.173,0,0,1,2.266,2.45v4.323h-.837V27.9a1.58,1.58,0,0,0-1.65-1.749,1.711,1.711,0,0,0-1.786,1.86Z" fill="#fff"/><path d="M116.208,26.187H114.73V32.16h-.837V26.187h-1.035v-.714h1.035v-.961a1.583,1.583,0,0,1,1.749-1.687,3.879,3.879,0,0,1,.689.074v.751a2.739,2.739,0,0,0-.517-.037.94.94,0,0,0-1.084,1.072v.788h1.478Z" fill="#fff"/><path d="M116.714,28.847c-.006-2.057,1.213-3.467,2.968-3.473s2.962,1.416,2.956,3.473-1.207,3.454-2.956,3.448-2.974-1.4-2.968-3.448m2.968,2.7c1.367,0,2.118-1.231,2.118-2.7s-.751-2.715-2.118-2.709-2.13,1.244-2.13,2.709.751,2.7,2.13,2.7" fill="#fff"/><path d="M123.914,25.472h.813v1.034h.061a1.9,1.9,0,0,1,1.811-1.133c.135,0,.326.007.431.013v.85a1.966,1.966,0,0,0-.493-.05,1.664,1.664,0,0,0-1.773,1.675v4.3h-.85Z" fill="#fff"/><path d="M127.937,25.472h.813v1.034h.074a1.981,1.981,0,0,1,3.608.087h.049a2.022,2.022,0,0,1,1.983-1.207c1.238,0,2.032.788,2.032,2.29v4.483h-.85v-4.47a1.349,1.349,0,0,0-1.441-1.54,1.488,1.488,0,0,0-1.564,1.626v4.384h-.849V27.615a1.34,1.34,0,0,0-1.417-1.466,1.613,1.613,0,0,0-1.588,1.749v4.261h-.85Z" fill="#fff"/><path d="M140.247,28.305c.45-.025,1.528-.1,1.848-.111v-.628c.006-.9-.573-1.447-1.626-1.441a1.512,1.512,0,0,0-1.625,1.01h-.875c.142-1.059,1.158-1.755,2.549-1.761a2.173,2.173,0,0,1,2.414,2.266v4.519H142.1V31.125h-.05a2.164,2.164,0,0,1-2.056,1.182,2.007,2.007,0,0,1-2.205-2.019c-.006-1.361,1.1-1.872,2.463-1.983m-.135,3.251A1.889,1.889,0,0,0,142.1,29.61v-.72c-.333.031-1.392.111-1.724.129-1.183.08-1.749.536-1.749,1.306,0,.788.634,1.231,1.49,1.231" fill="#fff"/><path d="M147.25,26.187h-1.4v4.187c-.006.844.468,1.078.973,1.084l.554-.025v.788a5.9,5.9,0,0,1-.628.037A1.656,1.656,0,0,1,145,30.583v-4.4h-1v-.714h1v-1.6h.85v1.6h1.4Z" fill="#fff"/><path d="M149.007,23.157a.618.618,0,0,1,.616.591.6.6,0,0,1-.616.579.591.591,0,0,1-.616-.579.609.609,0,0,1,.616-.591m-.431,2.315h.837v6.687h-.837Z" fill="#fff"/><path d="M150.7,28.847c-.006-2.057,1.213-3.467,2.968-3.473s2.962,1.416,2.956,3.473-1.207,3.454-2.956,3.448-2.974-1.4-2.968-3.448m2.968,2.7c1.367,0,2.118-1.231,2.118-2.7s-.751-2.715-2.118-2.709-2.13,1.244-2.13,2.709.751,2.7,2.13,2.7" fill="#fff"/><path d="M158.752,32.159h-.85V25.472h.813v1.059h.074a2.016,2.016,0,0,1,1.97-1.145,2.173,2.173,0,0,1,2.266,2.45v4.323h-.837V27.9a1.58,1.58,0,0,0-1.65-1.749,1.711,1.711,0,0,0-1.786,1.86Z" fill="#fff"/><rect width="0.874" height="8.916" transform="translate(167.647 23.243)" fill="#fff"/><path d="M171.139,32.159h-.85V25.472h.813v1.059h.074a2.016,2.016,0,0,1,1.97-1.145,2.173,2.173,0,0,1,2.266,2.45v4.323h-.837V27.9a1.58,1.58,0,0,0-1.65-1.749,1.711,1.711,0,0,0-1.786,1.86Z" fill="#fff"/><path d="M179.829,26.187h-1.478V32.16h-.837V26.187h-1.035v-.714h1.035v-.961a1.583,1.583,0,0,1,1.749-1.687,3.879,3.879,0,0,1,.689.074v.751a2.739,2.739,0,0,0-.517-.037.94.94,0,0,0-1.084,1.072v.788h1.478Z" fill="#fff"/><path d="M180.946,25.472h.813v1.034h.061a1.9,1.9,0,0,1,1.811-1.133c.135,0,.326.007.431.013v.85a1.966,1.966,0,0,0-.493-.05,1.664,1.664,0,0,0-1.773,1.675v4.3h-.85Z" fill="#fff"/><path d="M187.1,28.305c.45-.025,1.528-.1,1.848-.111v-.628c.006-.9-.573-1.447-1.626-1.441a1.512,1.512,0,0,0-1.625,1.01h-.875c.142-1.059,1.158-1.755,2.549-1.761a2.173,2.173,0,0,1,2.414,2.266v4.519h-.837V31.125h-.05a2.164,2.164,0,0,1-2.056,1.182,2.007,2.007,0,0,1-2.205-2.019c-.006-1.361,1.1-1.872,2.463-1.983m-.135,3.251a1.889,1.889,0,0,0,1.983-1.946v-.72c-.333.031-1.392.111-1.724.129-1.183.08-1.749.536-1.749,1.306,0,.788.634,1.231,1.49,1.231" fill="#fff"/><rect width="3.744" height="0.788" transform="translate(191.324 27.948)" fill="#fff"/><path d="M198.832,26.113c-.893-.006-1.521.486-1.515,1.133-.006.511.382.868,1.195,1.071l1.022.247c1.127.277,1.693.874,1.687,1.773.006,1.139-.924,1.964-2.5,1.958a2.171,2.171,0,0,1-2.475-1.835h.874c.136.727.678,1.1,1.589,1.1,1,0,1.656-.455,1.662-1.17-.006-.529-.369-.9-1.157-1.083l-1.022-.247c-1.127-.264-1.718-.886-1.724-1.773.006-1.108.96-1.909,2.364-1.909a2.116,2.116,0,0,1,2.3,1.761H200.3a1.341,1.341,0,0,0-1.465-1.022" fill="#fff"/><path d="M202.572,34.647l.011-.751c.08.006.271.012.407.012.431,0,.862-.055,1.219-1.034l.234-.653-2.463-6.749h.911l1.946,5.6h.062l1.958-5.6h.9l-2.821,7.722a1.942,1.942,0,0,1-1.9,1.478c-.179-.007-.357-.013-.467-.025" fill="#fff"/><path d="M211.089,26.113c-.893-.006-1.521.486-1.515,1.133-.006.511.382.868,1.195,1.071l1.022.247c1.127.277,1.693.874,1.687,1.773.006,1.139-.924,1.964-2.5,1.958A2.171,2.171,0,0,1,208.5,30.46h.874c.136.727.678,1.1,1.589,1.1,1,0,1.656-.455,1.662-1.17-.006-.529-.369-.9-1.157-1.083l-1.022-.247c-1.127-.264-1.718-.886-1.724-1.773.006-1.108.96-1.909,2.364-1.909a2.116,2.116,0,0,1,2.3,1.761h-.838a1.341,1.341,0,0,0-1.465-1.022" fill="#fff"/><path d="M217.464,26.187h-1.4v4.187c-.006.844.468,1.078.973,1.084l.554-.025v.788a5.9,5.9,0,0,1-.628.037,1.656,1.656,0,0,1-1.749-1.675v-4.4h-1v-.714h1v-1.6h.85v1.6h1.4Z" fill="#fff"/><path d="M218.377,28.859c-.006-2.032,1.2-3.479,2.943-3.485,1.453.006,2.851,1.028,2.857,3.3v.394h-4.963a2.239,2.239,0,0,0,2.229,2.475,1.873,1.873,0,0,0,1.7-.9h.9a2.582,2.582,0,0,1-2.6,1.65c-1.89.006-3.072-1.4-3.066-3.436m4.938-.517a2.032,2.032,0,0,0-1.983-2.2,2.188,2.188,0,0,0-2.112,2.2Z" fill="#fff"/><path d="M225.441,25.472h.813v1.034h.074a1.981,1.981,0,0,1,3.608.087h.049a2.022,2.022,0,0,1,1.983-1.207c1.238,0,2.032.788,2.032,2.29v4.483h-.85v-4.47a1.349,1.349,0,0,0-1.441-1.54,1.488,1.488,0,0,0-1.564,1.626v4.384H229.3V27.615a1.34,1.34,0,0,0-1.417-1.466,1.613,1.613,0,0,0-1.588,1.749v4.261h-.85Z" fill="#fff"/><path d="M51.433.853c2.667,0,4.285,2.241,4.285,5.619,0,3.361-1.618,5.6-4.285,5.6-2.721,0-4.321-2.24-4.321-5.6,0-3.378,1.6-5.619,4.321-5.619m0,9.637c1.76,0,2.6-1.546,2.6-4.018,0-2.489-.836-4.072-2.6-4.072-1.8,0-2.667,1.583-2.667,4.072,0,2.472.871,4.018,2.667,4.018M58.1,14.9V0h1.743V5.725h2.72V7.308h-2.72V14.9Z" fill="#fff"/><path d="M69.386,11.9V8.659h-4.57V.871H75.751V8.659h-4.6V11.9h6.419v1.583H62.984V11.9Zm4.658-9.442H66.5V7.076h7.539Z" fill="#fff"/><path d="M81.648,10.668h.978A21.269,21.269,0,0,0,86.5,10.3l.267,1.547a21.727,21.727,0,0,1-4.108.409H79.888V5.814H83.96V2.649H79.888V1.066H85.72V7.343H81.648Zm8.233,4.09H88.12V7.237H86.182V5.654H88.12V.177h1.761ZM91.339,0H93.1V14.9h-1.76Z" fill="#fff"/><path d="M106.037,11.451a26.748,26.748,0,0,1-5.726.444H95.777V10.313h2.045c-.142-2.17-.249-6.064-.249-7.842H96.1V.889h8.784V2.471h-1.618c0,2.1-.071,5.69-.213,7.788a17.5,17.5,0,0,0,2.72-.391Zm-4.748-1.138c.143-2.241.249-5.85.249-7.842H99.316c0,1.8.071,5.672.231,7.842h1.742Zm3.236-4.926H107V0h1.76V14.9H107V6.97h-2.472Z" fill="#fff"/><path d="M115.9,6.65h-.231a4.994,4.994,0,0,1-.267.924,11.924,11.924,0,0,1-3.787,4.73l-1.227-1.138a10.291,10.291,0,0,0,4.5-8.286V.889h1.725V2.88a9.964,9.964,0,0,0,4.267,8l-1.245,1.138A11.749,11.749,0,0,1,116.2,7.592a4.528,4.528,0,0,1-.3-.942M122.228,0h1.761V14.9h-1.761Z" fill="#fff"/><path d="M134.224,2.133c-.035,1.352-.107,3.219-.231,4.623a18.963,18.963,0,0,0,3.894-.5V0h1.76V8.961h-1.76v-1.1a29.89,29.89,0,0,1-6.881.533h-4.428V6.828h2.009c-.124-1.423-.231-3.308-.266-4.7h-1.689V.569h9.192V2.133Zm3.663,9.389h-9.264V9.939h11.024v5.424h-1.76Zm-5.53-4.694c.125-1.458.178-3.379.2-4.7h-2.525c0,1.334.053,3.254.2,4.7h2.134Z" fill="#fff"/><path d="M150.451,11.1a5.268,5.268,0,0,0,.16-1.511V8.766h-4.055V7.219h3.983a36.119,36.119,0,0,0,6.544-.445l.249,1.529a31.4,31.4,0,0,1-4.979.445v.836a6.305,6.305,0,0,1-.142,1.653ZM151.8.409c2.223,0,4.125.942,4.125,2.845s-1.9,2.809-4.125,2.809-4.125-.907-4.125-2.809S149.579.409,151.8.409m-1.174,11.2v2.08h9.62v1.583h-11.38V11.611ZM151.8,4.605c1.671,0,2.436-.569,2.436-1.351s-.765-1.37-2.436-1.37-2.454.587-2.454,1.37c0,.764.782,1.351,2.454,1.351m2.454,5.032h3.876V0h1.76V12.464h-1.76v-1.3h-3.876Z" fill="#fff"/><path d="M175.711,9.032a16.51,16.51,0,0,1-2.631.356V11.9H176.8v1.583H162.215V11.9h3.717V9.477h-1.974V4.285h9.389V2.347h-9.389V.782h11.113V5.85h-9.406V7.912H169.9a25.921,25.921,0,0,0,5.566-.409Zm-8.019.445V11.9h3.645V9.477h-3.645Z" fill="#fff"/><path d="M186.551,8.588A6.345,6.345,0,0,1,183.635,6.6a2.7,2.7,0,0,1-.48-.871h-.338a2.276,2.276,0,0,1-.409.889,7.747,7.747,0,0,1-3.236,2.721l-1.263-1.316c3.663-1.92,4.161-4.161,4.215-5.708h-3.592V.729h8.784V2.311h-3.468c.036,1.512.392,3.539,3.93,4.943Zm-.587.978c3.7,0,5.655,1.031,5.655,2.952,0,1.9-1.956,2.933-5.655,2.933-3.734,0-5.636-1.031-5.636-2.933,0-1.921,1.9-2.952,5.636-2.952m0,4.338c2.917,0,3.841-.622,3.841-1.386,0-.783-.924-1.4-3.841-1.4-2.934,0-3.84.622-3.84,1.4,0,.764.906,1.386,3.84,1.386m.267-10.313h3.361V0h1.76V9.05h-1.76V5.156h-3.361Z" fill="#fff"/><path d="M201.836,9.121V11.9h6.419v1.583h-14.58V11.9h6.4V9.121h-4.659V.782h1.689V3.645h7.717V.782h1.707V9.121Zm2.987-3.912h-7.717v2.33h7.717Z" fill="#fff"/><path d="M218.773,6.65h-.231a4.994,4.994,0,0,1-.267.924,11.934,11.934,0,0,1-3.787,4.73l-1.227-1.138a10.291,10.291,0,0,0,4.5-8.286V.889h1.724V2.88a9.965,9.965,0,0,0,4.268,8l-1.245,1.138a11.764,11.764,0,0,1-3.432-4.428,4.589,4.589,0,0,1-.3-.942M225.1,0h1.761V14.9H225.1Z" fill="#fff"/><path d="M243.767,13.478h-14.58V11.9h14.58Zm-7.45-8.695a2.3,2.3,0,0,1-.463.96,9.07,9.07,0,0,1-4.907,3.023l-.978-1.387c4.979-1.547,5.636-4.072,5.636-5.69V.96h1.708v.729c0,1.582.782,4.072,5.672,5.387l-1.014,1.441a8.991,8.991,0,0,1-4.765-2.774,3.029,3.029,0,0,1-.534-.96Z" fill="#fff"/><path d="M252.527.569V2.133h-4.6v1.85h3.965V5.494h-3.965V7.219a24.582,24.582,0,0,0,5.227-.427l.266,1.565a31.727,31.727,0,0,1-6.275.444h-.961V.569Zm-4.374,9.637h10.793v5.157H248.153Zm9.033,1.565H249.9V13.78h7.29Zm-4.677-7.86h1.813V.195h1.673V9.317h-1.673V5.494h-1.813ZM259,9.317h-1.673V0H259Z" fill="#fff"/></g></g></svg>