<svg xmlns="http://www.w3.org/2000/svg" xmlns:xlink="http://www.w3.org/1999/xlink" width="142" height="14.054" viewBox="0 0 142 14.054"><defs><clipPath id="a"><rect width="142" height="14.054" fill="none"/></clipPath></defs><g transform="translate(0 0)"><g transform="translate(0 0)" clip-path="url(#a)"><path d="M6.4,2.483c.259.633,1.462,3.578,1.631,3.99L4.653,6.46c.183-.419,1.47-3.349,1.744-3.977M5.734.536,0,13.548l1.637.006,2.45-5.7s4.25.014,4.477.017l2.344,5.715,1.724.006L7.2.542Z" transform="translate(0 -0.336)" fill="#184f83"/><path d="M50.221.669S46.005,10.275,45.69,11C45.375,10.272,41.233.635,41.233.635L39.156.627l-.05,13.033,1.551.006L40.7,3.119l4.588,10.564.766,0s4.037-9.238,4.595-10.521L50.605,13.7l1.549.006L52.2.677Z" transform="translate(-24.53 -0.393)" fill="#184f83"/><path d="M163.379,1.1l-.048,13.033,9.182.035.005-1.444-7.629-.029.017-4.566,6.936.026.005-1.442-6.935-.026.015-4.139,7.343.028,0-1.442Z" transform="translate(-102.453 -0.687)" fill="#184f83"/><path d="M106.515,7.283c2.041-.34,3.129-1.5,3.136-3.377.009-2.331-1.562-3.514-4.674-3.525L99.535.36l-.021,5.579-3.447-.013A6.422,6.422,0,0,0,89.416,0,6.491,6.491,0,0,0,82.66,6.81a6.726,6.726,0,0,0,13.438.56l3.41.013-.023,6.011,1.55.006.023-6.011L104.9,7.4c.105.178,3.536,6.025,3.536,6.025l1.775.007-3.694-6.151M89.369,12.232a5.065,5.065,0,0,1-5.164-5.416,5.186,5.186,0,1,1,10.363.039,5.061,5.061,0,0,1-5.2,5.377M101.045,5.92l.016-4.138,4.251.016c2.511.009,2.779,1.458,2.776,2.08s-.281,2.067-2.793,2.058Z" transform="translate(-51.85 0)" fill="#184f83"/><path d="M201.062.875l-.049,13.035.862,0,.025-6.367,3.094.012c1.858.007,3.85-.858,3.858-3.3.012-3.026-2.877-3.361-4.12-3.366Zm1.056.76,2.765.01c1.435.006,3.107.692,3.1,2.606-.007,1.89-1.574,2.558-3.041,2.552L201.9,6.793l.019-5.158h.2M213.963.924l-5.735,13.013.889,0s2.406-5.6,2.456-5.711l5.534.02c.047.113,2.344,5.73,2.344,5.73l.988,0L215,.928l-1.039,0m.27,1.112s.1-.239.182-.42c.153.384,2.28,5.651,2.377,5.891l-4.89-.019c.107-.246,2.331-5.452,2.331-5.452m7.609,5.434a6.491,6.491,0,0,0,6.7,6.866,5.643,5.643,0,0,0,4.631-2.132l.061-.075-.716-.547-.057.073a5.083,5.083,0,0,1-3.917,1.925,5.715,5.715,0,0,1-5.834-6.106,5.714,5.714,0,0,1,5.88-6.061,4.463,4.463,0,0,1,3.54,1.681l.058.077.721-.6-.063-.068A5.374,5.374,0,0,0,228.592.659a6.489,6.489,0,0,0-6.75,6.811M256.7,7.6a6.49,6.49,0,0,0,6.7,6.866,5.647,5.647,0,0,0,4.632-2.132l.06-.075-.716-.547-.057.073a5.079,5.079,0,0,1-3.916,1.925A5.717,5.717,0,0,1,257.566,7.6a5.715,5.715,0,0,1,5.881-6.06,4.465,4.465,0,0,1,3.539,1.681l.06.078.723-.6-.064-.069A5.386,5.386,0,0,0,263.45.791,6.487,6.487,0,0,0,256.7,7.6m-19.9,6.443.872,0,.05-13.033-.873,0Zm4.624-13.017-.048,13.035.87,0,.025-6.367,6.307.024,0-.753-6.307-.024.02-5.158,6.784.026,0-.756-7.655-.029m11.28,13.077.869,0,.049-13.033-.869,0Z" transform="translate(-126.09 -0.413)" fill="#00173a"/></g></g></svg>